<?xml version="1.0" standalone="no"?>
<!DOCTYPE svg PUBLIC "-//W3C//DTD SVG 20010904//EN"
 "http://www.w3.org/TR/2001/REC-SVG-20010904/DTD/svg10.dtd">
<svg version="1.0" xmlns="http://www.w3.org/2000/svg"
 width="1024.000000pt" height="1024.000000pt" viewBox="0 0 1024.000000 1024.000000"
 preserveAspectRatio="xMidYMid meet">
<metadata>
Created by potrace 1.11, written by Peter Selinger 2001-2013
</metadata>
<g transform="translate(0.000000,1024.000000) scale(0.100000,-0.100000)"
fill="#000000" stroke="none">
<path d="M2057 6974 c-430 -67 -759 -285 -917 -609 -70 -143 -91 -231 -97
-401 -6 -162 8 -256 58 -383 43 -107 106 -196 203 -288 175 -164 340 -238
1012 -453 292 -93 463 -190 546 -310 51 -72 68 -134 68 -246 0 -164 -52 -285
-173 -401 -69 -67 -187 -129 -295 -158 -144 -37 -388 -39 -552 -4 -133 27
-284 100 -516 248 -106 67 -205 61 -275 -16 -20 -22 -129 -192 -173 -270 -16
-28 254 -208 436 -290 205 -92 388 -136 632 -153 568 -41 1039 134 1308 486
92 120 154 265 194 449 25 122 23 346 -4 450 -55 205 -178 369 -370 493 -145
94 -324 166 -782 316 -313 102 -433 154 -542 235 -130 97 -173 187 -166 345 3
80 8 102 39 167 58 121 154 206 305 269 113 47 200 61 364 61 235 -1 398 -46
656 -182 110 -58 139 -69 180 -69 76 0 101 22 192 170 45 72 82 135 82 140 0
19 -189 159 -300 222 -151 86 -395 164 -590 188 -117 14 -417 11 -523 -6z"/>
<path d="M5779 6974 c-235 -42 -436 -161 -671 -396 -119 -118 -139 -134 -143
-115 -2 12 -14 99 -25 192 -18 142 -25 176 -45 207 -45 68 -63 72 -307 76
l-218 4 0 -1826 0 -1826 320 0 320 0 0 1364 0 1365 108 112 c237 248 439 348
700 349 211 0 356 -53 478 -174 88 -88 151 -210 186 -361 l23 -100 3 -1277 3
-1278 319 0 320 0 0 1183 c0 702 4 1216 10 1267 28 249 131 453 293 581 63 51
188 112 277 136 92 25 348 25 440 -1 151 -41 284 -140 364 -269 56 -90 79
-150 108 -274 l22 -98 3 -1262 4 -1263 319 0 320 0 0 1234 c0 1357 0 1357 -61
1596 -90 351 -289 610 -574 750 -173 85 -342 120 -575 120 -353 0 -607 -89
-858 -300 -89 -75 -209 -234 -265 -350 -23 -49 -44 -89 -47 -90 -3 0 -13 26
-23 58 -50 158 -147 319 -260 434 -174 177 -363 249 -652 247 -77 0 -174 -7
-216 -15z"/>
</g>
</svg>
